<?xml version="1.0" encoding="iso-8859-1"?>
<!-- Generator: Adobe Illustrator 19.0.0, SVG Export Plug-In . SVG Version: 6.00 Build 0)  -->
<svg version="1.1" id="Layer_1" xmlns="http://www.w3.org/2000/svg"  x="0px" y="0px"
	 viewBox="0 0 512 512" style="enable-background:new 0 0 512 512;" xml:space="preserve">
<path style="fill:#FFD357;" d="M458.533,253.766c-0.048-2.304-1.152-4.459-2.995-5.843l-20.752-15.593
	c-2.451-1.843-5.779-2.008-8.402-0.415c-7.728,4.692-16.101,8.161-24.887,10.31c-2.98,0.728-5.217,3.198-5.648,6.235l-3.417,24.073
	h-24.284l-3.416-24.072c-0.431-3.038-2.668-5.506-5.648-6.236c-8.785-2.147-17.159-5.616-24.887-10.309
	c-2.622-1.593-5.949-1.428-8.403,0.415l-19.44,14.606l-17.171-17.172l14.606-19.439c1.843-2.452,2.007-5.78,0.415-8.403
	c-4.693-7.729-8.161-16.102-10.31-24.887c-0.729-2.981-3.197-5.216-6.236-5.648l-24.073-3.417v-24.283l24.073-3.417
	c3.038-0.431,5.506-2.668,6.236-5.647c2.148-8.785,5.616-17.159,10.31-24.888c1.592-2.623,1.428-5.949-0.415-8.403l-14.606-19.438
	l17.171-17.172l19.44,14.606c2.45,1.842,5.778,2.007,8.403,0.415c3.313-2.012,6.869-3.849,10.569-5.461
	c2.586-1.127,4.321-3.607,4.493-6.423c0.171-2.815-1.25-5.489-3.68-6.922c-35.12-20.705-75.329-31.649-116.281-31.649
	c-61.248,0-118.829,23.851-162.138,67.159C23.851,139.757,0,197.338,0,258.586s23.851,118.829,67.159,162.137
	c43.309,43.308,100.891,67.16,162.138,67.16s118.829-23.851,162.137-67.16s67.159-100.89,67.159-162.137
	C458.593,256.974,458.566,255.369,458.533,253.766z"/>
<g>
	<path style="fill:#FFAF57;" d="M458.533,253.766c-0.048-2.304-1.152-4.459-2.995-5.843l-20.752-15.593
		c-2.451-1.843-5.779-2.008-8.402-0.415c-2.952,1.792-5.999,3.403-9.127,4.833l10.877,8.173c1.843,1.385,2.947,3.539,2.995,5.843
		c0.033,1.604,0.061,3.208,0.061,4.82c0,61.248-23.851,118.829-67.159,162.137s-100.89,67.16-162.137,67.16
		c-3.884,0-7.753-0.098-11.606-0.289c12.762,2.175,25.8,3.291,39.011,3.291c61.248,0,118.829-23.851,162.137-67.16
		s67.159-100.89,67.159-162.137C458.593,256.974,458.566,255.369,458.533,253.766z"/>
	<path style="fill:#FFAF57;" d="M318.175,57.936c2.43,1.433,3.851,4.106,3.68,6.922c-0.172,2.815-1.907,5.296-4.493,6.423
		c-0.478,0.208-0.947,0.43-1.419,0.646l9.852,7.402c2.45,1.842,5.778,2.007,8.403,0.415c3.313-2.012,6.869-3.849,10.569-5.461
		c2.586-1.127,4.32-3.607,4.493-6.423c0.171-2.815-1.25-5.489-3.68-6.922c-31.896-18.805-67.989-29.556-105.025-31.372
		C267.876,34.229,294.211,43.809,318.175,57.936z"/>
</g>
<path style="fill:#F9F1EF;" d="M229.297,91.544c-92.107,0-167.042,74.935-167.042,167.042s74.935,167.042,167.042,167.042
	c82.236,0,150.78-59.731,164.53-138.087h-32.195c-3.737,0-6.904-2.75-7.43-6.45l-3.637-25.629
	c-6.838-2.035-13.436-4.768-19.708-8.164l-20.696,15.55c-2.986,2.243-7.171,1.95-9.815-0.693l-26.384-26.384
	c-2.643-2.643-2.938-6.827-0.692-9.815l15.551-20.695c-3.397-6.274-6.129-12.87-8.164-19.707l-25.629-3.638
	c-3.7-0.525-6.45-3.693-6.45-7.43v-37.312c0-3.737,2.75-6.905,6.45-7.43l25.629-3.638c2.035-6.837,4.768-13.435,8.164-19.708
	l-4.083-5.434C266.969,94.711,248.328,91.544,229.297,91.544z"/>
<path style="fill:#DDDBDB;" d="M229.297,426.139c-92.39,0-167.554-75.165-167.554-167.554S136.907,91.031,229.297,91.031
	S396.85,166.196,396.85,258.586S321.687,426.139,229.297,426.139z M229.297,106.04c-84.114,0-152.545,68.432-152.545,152.546
	s68.432,152.546,152.545,152.546c84.113,0,152.544-68.432,152.544-152.546S313.41,106.04,229.297,106.04z"/>
<path style="fill:#FF3E48;" d="M361.633,287.539c-3.737,0-6.904-2.75-7.43-6.45l-3.637-25.629
	c-6.838-2.035-13.436-4.768-19.708-8.164l-20.696,15.55c-2.986,2.243-7.171,1.95-9.815-0.693l-26.384-26.384
	c-2.643-2.643-2.938-6.827-0.692-9.815l15.551-20.695c-3.397-6.274-6.129-12.87-8.164-19.707l-25.629-3.638
	c-3.7-0.525-6.45-3.693-6.45-7.43v-37.312c0-3.737,2.75-6.905,6.45-7.43l25.629-3.638c2.035-6.837,4.768-13.435,8.164-19.708
	l-4.083-5.434c-17.769-6.251-36.41-9.419-55.44-9.419c-2.66,0-5.302,0.069-7.932,0.193v140.78c0,0.955,0.189,1.92,0.544,2.807
	c1.141,2.849,3.905,4.717,6.974,4.717c10.352,0,18.774,8.422,18.774,18.773c0,5.519-2.42,10.738-6.641,14.319
	c-2.399,2.036-3.273,5.353-2.189,8.307l0.188,0.514c0.66,1.8,1.984,3.278,3.7,4.132l126.824,63.146
	c11.935-18.402,20.356-39.283,24.287-61.692h-32.194V287.539z"/>
<path style="fill:#6A59B5;" d="M505.55,129.743l-25.628-3.638c-2.036-6.839-4.77-13.437-8.164-19.707l15.55-20.696
	c2.244-2.988,1.949-7.172-0.692-9.815l-26.383-26.384c-2.645-2.643-6.828-2.938-9.815-0.693L429.722,64.36
	c-6.273-3.396-12.87-6.129-19.708-8.164l-3.638-25.629c-0.525-3.7-3.693-6.45-7.43-6.45h-37.313c-3.737,0-6.904,2.75-7.43,6.45
	l-3.637,25.629c-6.838,2.035-13.436,4.768-19.708,8.164l-20.696-15.551c-2.986-2.245-7.171-1.949-9.815,0.693l-26.384,26.384
	c-2.643,2.643-2.938,6.827-0.692,9.815l15.551,20.696c-3.395,6.273-6.129,12.87-8.164,19.707l-25.629,3.638
	c-3.7,0.525-6.45,3.693-6.45,7.43v37.312c0,3.737,2.75,6.905,6.45,7.43l25.629,3.638c2.035,6.837,4.768,13.435,8.164,19.707
	l-15.551,20.695c-2.244,2.988-1.949,7.172,0.692,9.815l26.384,26.384c2.644,2.644,6.828,2.937,9.815,0.693l20.696-15.55
	c6.274,3.396,12.87,6.13,19.708,8.164l3.637,25.629c0.525,3.7,3.692,6.45,7.43,6.45h37.313c3.737,0,6.904-2.75,7.43-6.45
	l3.638-25.629c6.838-2.035,13.437-4.769,19.708-8.164l20.696,15.55c2.986,2.245,7.171,1.949,9.815-0.693l26.383-26.384
	c2.643-2.643,2.938-6.827,0.692-9.815l-15.55-20.695c3.395-6.272,6.128-12.868,8.164-19.707l25.628-3.638
	c3.7-0.525,6.45-3.693,6.45-7.43v-37.312C512,133.436,509.25,130.268,505.55,129.743z"/>
<path style="fill:#3BB54A;" d="M380.289,88.623c-37.058,0-67.206,30.148-67.206,67.206s30.148,67.206,67.206,67.206
	s67.207-30.148,67.207-67.206S417.346,88.623,380.289,88.623z"/>
<path style="fill:#FFFFFF;" d="M370.383,182.412c-1.92,0-3.841-0.732-5.306-2.198l-19.08-19.079c-2.931-2.931-2.931-7.681,0-10.612
	c2.932-2.931,7.682-2.931,10.613,0l13.773,13.773l32.851-32.853c2.932-2.931,7.682-2.931,10.613,0c2.931,2.931,2.931,7.682,0,10.613
	l-38.158,38.158C374.224,181.679,372.303,182.412,370.383,182.412z"/>
<circle style="fill:#6A59B5;" cx="228.883" cy="258.81" r="26.275"/>
<g>
	<path style="fill:#4E439B;" d="M228.884,292.595c-18.628,0-33.783-15.155-33.783-33.782s15.155-33.782,33.783-33.782
		s33.783,15.155,33.783,33.782S247.512,292.595,228.884,292.595z M228.884,240.04c-10.352,0-18.774,8.422-18.774,18.773
		c0,10.351,8.422,18.773,18.774,18.773s18.774-8.422,18.774-18.773C247.658,248.462,239.236,240.04,228.884,240.04z"/>
	<path style="fill:#4E439B;" d="M105.258,146.829l19.108,18.942c1.464,1.451,3.373,2.175,5.283,2.175
		c1.931,0,3.862-0.741,5.329-2.221c2.918-2.944,2.897-7.694-0.046-10.612l-19.134-18.967
		C112.13,139.548,108.61,143.112,105.258,146.829z"/>
	<path style="fill:#4E439B;" d="M99.804,258.586c0-4.144-3.359-7.504-7.504-7.504H62.431c-0.111,2.488-0.177,4.989-0.177,7.504
		s0.066,5.016,0.177,7.504H92.3C96.445,266.09,99.804,262.73,99.804,258.586z"/>
	<path style="fill:#4E439B;" d="M134.978,351.902c-2.917-2.943-7.668-2.964-10.612-0.046l-18.893,18.729
		c3.36,3.71,6.888,7.265,10.563,10.661l18.897-18.732C137.876,359.596,137.896,354.844,134.978,351.902z"/>
	<path style="fill:#4E439B;" d="M236.801,425.458v-28.475c0-4.144-3.359-7.504-7.504-7.504c-4.145,0-7.504,3.36-7.504,7.504v28.467
		c2.488,0.111,4.989,0.177,7.504,0.177C231.811,425.627,234.314,425.569,236.801,425.458z"/>
</g>
<g>
	<path style="fill:#CE2C34;" d="M221.365,91.736v14.508c2.627-0.135,5.271-0.205,7.932-0.205c19.325,0,37.819,3.621,54.849,10.206
		c1.383-3.36,2.941-6.647,4.675-9.85l-4.083-5.434c-17.769-6.251-36.41-9.419-55.44-9.419
		C226.638,91.544,223.995,91.613,221.365,91.736z"/>
	<path style="fill:#CE2C34;" d="M393.827,287.539h-14.754c-3.871,20.064-11.684,38.738-22.601,55.186l13.068,6.507
		C381.474,330.83,389.895,309.949,393.827,287.539z"/>
</g>
<g>
</g>
<g>
</g>
<g>
</g>
<g>
</g>
<g>
</g>
<g>
</g>
<g>
</g>
<g>
</g>
<g>
</g>
<g>
</g>
<g>
</g>
<g>
</g>
<g>
</g>
<g>
</g>
<g>
</g>
</svg>
